<mxGraphModel dx="0" dy="0" grid="1" gridSize="10" guides="1" tooltips="1" connect="1" arrows="1" fold="1" page="0" pageScale="1" background="none" math="0" shadow="0">
  <root>
    <mxCell id="0" />
    <mxCell id="1" parent="0" />
    <mxCell id="node15" parent="1" vertex="1" value="&lt;p style=&quot;margin:0px;margin-top:4px;text-align:center;&quot;&gt;&lt;b&gt;Call&lt;/b&gt;&lt;/p&gt;&lt;hr size=&quot;1&quot;/&gt;&lt;p style=&quot;margin:0 0 0 4px;line-height:1.6;&quot;&gt;- contact: long&lt;br/&gt;- date: String&lt;br/&gt;- id: long&lt;br/&gt;- name: String&lt;/p&gt;&lt;hr size=&quot;1&quot;/&gt;&lt;p style=&quot;margin:0 0 0 4px;line-height:1.6;&quot;&gt;+ getContact(): long&lt;br/&gt;+ getDate(): String&lt;br/&gt;+ getId(): long&lt;br/&gt;+ getName(): String&lt;br/&gt;+ setContact(long): void&lt;br/&gt;+ setDate(String): void&lt;br/&gt;+ setId(long): void&lt;br/&gt;+ setName(String): void&lt;/p&gt;" style="verticalAlign=top;align=left;overflow=fill;fontSize=14;fontFamily=Helvetica;html=1;rounded=0;shadow=0;comic=0;labelBackgroundColor=none;strokeWidth=1;">
      <mxGeometry x="1227" y="187" width="184" height="328" as="geometry" />
    </mxCell>
    <mxCell id="node6" parent="1" vertex="1" value="&lt;p style=&quot;margin:0px;margin-top:4px;text-align:center;&quot;&gt;&lt;b&gt;CallListActivity&lt;/b&gt;&lt;/p&gt;&lt;hr size=&quot;1&quot;/&gt;&lt;p style=&quot;margin:0 0 0 4px;line-height:1.6;&quot;&gt;- callsAdapter: CallsAdapter&lt;/p&gt;&lt;hr size=&quot;1&quot;/&gt;&lt;p style=&quot;margin:0 0 0 4px;line-height:1.6;&quot;&gt;- addCallsToCallsList(Cursor, ArrayList&amp;lt;Call&amp;gt;): void&lt;br/&gt;- enterData(): ArrayList&amp;lt;Call&amp;gt;&lt;br/&gt;# onCreate(Bundle): void&lt;br/&gt;+ onCreateOptionsMenu(Menu): boolean&lt;br/&gt;+ onOptionsItemSelected(MenuItem): boolean&lt;br/&gt;# onResume(): void&lt;/p&gt;" style="verticalAlign=top;align=left;overflow=fill;fontSize=14;fontFamily=Helvetica;html=1;rounded=0;shadow=0;comic=0;labelBackgroundColor=none;strokeWidth=1;">
      <mxGeometry x="195" y="1168" width="352" height="208" as="geometry" />
    </mxCell>
    <mxCell id="node12" parent="1" vertex="1" value="&lt;p style=&quot;margin:0px;margin-top:4px;text-align:center;&quot;&gt;&lt;b&gt;CallsAdapter&lt;/b&gt;&lt;/p&gt;&lt;hr size=&quot;1&quot;/&gt;&lt;p style=&quot;margin:0 0 0 4px;line-height:1.6;&quot;&gt;- data: ArrayList&amp;lt;Call&amp;gt;&lt;/p&gt;&lt;hr size=&quot;1&quot;/&gt;&lt;p style=&quot;margin:0 0 0 4px;line-height:1.6;&quot;&gt;+ getView(int, View, ViewGroup): View&lt;/p&gt;" style="verticalAlign=top;align=left;overflow=fill;fontSize=14;fontFamily=Helvetica;html=1;rounded=0;shadow=0;comic=0;labelBackgroundColor=none;strokeWidth=1;">
      <mxGeometry x="240" y="6" width="278" height="95" as="geometry" />
    </mxCell>
    <mxCell id="node5" parent="1" vertex="1" value="&lt;p style=&quot;margin:0px;margin-top:4px;text-align:center;&quot;&gt;&lt;b&gt;Contact&lt;/b&gt;&lt;/p&gt;&lt;hr size=&quot;1&quot;/&gt;&lt;p style=&quot;margin:0 0 0 4px;line-height:1.6;&quot;&gt;- id: long&lt;br/&gt;- img: String&lt;br/&gt;- name: String&lt;br/&gt;- phone: String&lt;/p&gt;&lt;hr size=&quot;1&quot;/&gt;&lt;p style=&quot;margin:0 0 0 4px;line-height:1.6;&quot;&gt;+ getId(): long&lt;br/&gt;+ getImg(): String&lt;br/&gt;+ getName(): String&lt;br/&gt;+ getPhone(): String&lt;br/&gt;+ setId(long): void&lt;br/&gt;+ setImg(String): void&lt;br/&gt;+ setName(String): void&lt;br/&gt;+ setPhone(String): void&lt;/p&gt;" style="verticalAlign=top;align=left;overflow=fill;fontSize=14;fontFamily=Helvetica;html=1;rounded=0;shadow=0;comic=0;labelBackgroundColor=none;strokeWidth=1;">
      <mxGeometry x="1446" y="187" width="185" height="328" as="geometry" />
    </mxCell>
    <mxCell id="node11" parent="1" vertex="1" value="&lt;p style=&quot;margin:0px;margin-top:4px;text-align:center;&quot;&gt;&lt;b&gt;ContactListActivity&lt;/b&gt;&lt;/p&gt;&lt;hr size=&quot;1&quot;/&gt;&lt;p style=&quot;margin:0 0 0 4px;line-height:1.6;&quot;&gt;- contactsAdapter: ContactsAdapter&lt;br/&gt;- edTxtSearchContactName: EditText&lt;/p&gt;&lt;hr size=&quot;1&quot;/&gt;&lt;p style=&quot;margin:0 0 0 4px;line-height:1.6;&quot;&gt;- addContactsToContactList(Cursor, ArrayList&amp;lt;Contact&amp;gt;): void&lt;br/&gt;- emptyNameQuery(ContentResolver): Cursor&lt;br/&gt;- enterData(String): ArrayList&amp;lt;Contact&amp;gt;&lt;br/&gt;- notEmptyNameQuery(String, ContentResolver): Cursor&lt;br/&gt;# onCreate(Bundle): void&lt;br/&gt;+ onCreateOptionsMenu(Menu): boolean&lt;br/&gt;+ onOptionsItemSelected(MenuItem): boolean&lt;br/&gt;# onResume(): void&lt;br/&gt;- refreshListView(): void&lt;/p&gt;" style="verticalAlign=top;align=left;overflow=fill;fontSize=14;fontFamily=Helvetica;html=1;rounded=0;shadow=0;comic=0;labelBackgroundColor=none;strokeWidth=1;">
      <mxGeometry x="674" y="1120" width="426" height="304" as="geometry" />
    </mxCell>
    <mxCell id="node13" parent="1" vertex="1" value="&lt;p style=&quot;margin:0px;margin-top:4px;text-align:center;&quot;&gt;&lt;b&gt;ContactsAdapter&lt;/b&gt;&lt;/p&gt;&lt;hr size=&quot;1&quot;/&gt;&lt;p style=&quot;margin:0 0 0 4px;line-height:1.6;&quot;&gt;- data: ArrayList&amp;lt;Contact&amp;gt;&lt;/p&gt;&lt;hr size=&quot;1&quot;/&gt;&lt;p style=&quot;margin:0 0 0 4px;line-height:1.6;&quot;&gt;+ getView(int, View, ViewGroup): View&lt;/p&gt;" style="verticalAlign=top;align=left;overflow=fill;fontSize=14;fontFamily=Helvetica;html=1;rounded=0;shadow=0;comic=0;labelBackgroundColor=none;strokeWidth=1;">
      <mxGeometry x="240" y="133" width="278" height="95" as="geometry" />
    </mxCell>
    <mxCell id="node3" parent="1" vertex="1" value="&lt;p style=&quot;margin:0px;margin-top:4px;text-align:center;&quot;&gt;&lt;b&gt;DatePickerFragment&lt;/b&gt;&lt;/p&gt;&lt;hr size=&quot;1&quot;/&gt;&lt;p style=&quot;margin:0 0 0 4px;line-height:1.6;&quot;&gt;- listener: OnDateSetListener&lt;/p&gt;&lt;hr size=&quot;1&quot;/&gt;&lt;p style=&quot;margin:0 0 0 4px;line-height:1.6;&quot;&gt;+ newInstance(OnDateSetListener): DatePickerFragment&lt;br/&gt;+ onCreateDialog(Bundle): Dialog&lt;br/&gt;+ setListener(OnDateSetListener): void&lt;/p&gt;" style="verticalAlign=top;align=left;overflow=fill;fontSize=14;fontFamily=Helvetica;html=1;rounded=0;shadow=0;comic=0;labelBackgroundColor=none;strokeWidth=1;">
      <mxGeometry x="177" y="586" width="388" height="147" as="geometry" />
    </mxCell>
    <mxCell id="node0" parent="1" vertex="1" value="&lt;p style=&quot;margin:0px;margin-top:4px;text-align:center;&quot;&gt;&lt;b&gt;EditContactActivity&lt;/b&gt;&lt;/p&gt;&lt;hr size=&quot;1&quot;/&gt;&lt;p style=&quot;margin:0 0 0 4px;line-height:1.6;&quot;&gt;- PERMISSION_REQUEST_READ_EXTERNAL_STORAGE: int&lt;br/&gt;- pickMedia: ActivityResultLauncher&amp;lt;PickVisualMediaRequest&amp;gt;&lt;br/&gt;- selectedImageUri: Uri&lt;/p&gt;&lt;hr size=&quot;1&quot;/&gt;&lt;p style=&quot;margin:0 0 0 4px;line-height:1.6;&quot;&gt;- confirmDeleteContact(int): void&lt;br/&gt;- deleteContact(int): void&lt;br/&gt;- deleteContactCalls(int): void&lt;br/&gt;- getContactById(int): Contact&lt;br/&gt;- modifyContact(Contact): boolean&lt;br/&gt;# onCreate(Bundle): void&lt;br/&gt;- pickImg(): void&lt;br/&gt;- resetFields(EditText, EditText, TextView): void&lt;br/&gt;- setContactData(Contact, TextView, TextView, ImageView): void&lt;/p&gt;" style="verticalAlign=top;align=left;overflow=fill;fontSize=14;fontFamily=Helvetica;html=1;rounded=0;shadow=0;comic=0;labelBackgroundColor=none;strokeWidth=1;">
      <mxGeometry x="149" y="781" width="444" height="328" as="geometry" />
    </mxCell>
    <mxCell id="node2" parent="1" vertex="1" value="&lt;p style=&quot;margin:0px;margin-top:4px;text-align:center;&quot;&gt;&lt;b&gt;FakeCallsDB&lt;/b&gt;&lt;/p&gt;&lt;hr size=&quot;1&quot;/&gt;&lt;p style=&quot;margin:0 0 0 4px;line-height:1.6;&quot;&gt;~ sqlCreateCalls: String&lt;br/&gt;~ sqlCreateContacts: String&lt;/p&gt;&lt;hr size=&quot;1&quot;/&gt;&lt;p style=&quot;margin:0 0 0 4px;line-height:1.6;&quot;&gt;+ onCreate(SQLiteDatabase): void&lt;br/&gt;+ onUpgrade(SQLiteDatabase, int, int): void&lt;/p&gt;" style="verticalAlign=top;align=left;overflow=fill;fontSize=14;fontFamily=Helvetica;html=1;rounded=0;shadow=0;comic=0;labelBackgroundColor=none;strokeWidth=1;">
      <mxGeometry x="1227" y="6" width="305" height="147" as="geometry" />
    </mxCell>
    <mxCell id="node7" parent="1" vertex="1" value="&lt;p style=&quot;margin:0px;margin-top:4px;text-align:center;&quot;&gt;&lt;b&gt;FakeCallsProvider&lt;/b&gt;&lt;/p&gt;&lt;hr size=&quot;1&quot;/&gt;&lt;p style=&quot;margin:0 0 0 4px;line-height:1.6;&quot;&gt;- AUTHORITY: String&lt;br/&gt;+ BD_FAKE_CALLS: int&lt;br/&gt;+ BD_NAME: String&lt;br/&gt;- CALLS: int&lt;br/&gt;- CALLS_ID: int&lt;br/&gt;- CONTACTS: int&lt;br/&gt;- CONTACTS_ID: int&lt;br/&gt;+ CONTENT_URI_CALLS: Uri&lt;br/&gt;+ CONTENT_URI_CONTACTS: Uri&lt;br/&gt;- MIME_TYPE_CALL: String&lt;br/&gt;- MIME_TYPE_CALLS: String&lt;br/&gt;- MIME_TYPE_CONTACT: String&lt;br/&gt;- MIME_TYPE_CONTACTS: String&lt;br/&gt;+ TABLE_CALLS: String&lt;br/&gt;+ TABLE_CONTACTS: String&lt;br/&gt;- URI_CALLS: String&lt;br/&gt;- URI_CONTACTS: String&lt;br/&gt;+ URI_MATCHER: UriMatcher&lt;br/&gt;+ clidb: FakeCallsDB&lt;/p&gt;&lt;hr size=&quot;1&quot;/&gt;&lt;p style=&quot;margin:0 0 0 4px;line-height:1.6;&quot;&gt;+ delete(Uri, String, String[]): int&lt;br/&gt;+ getCallsByContactId(Context, long): List&amp;lt;Call&amp;gt;&lt;br/&gt;+ getContactById(Context, long): Contact&lt;br/&gt;+ getContactByName(Context, String): Contact&lt;br/&gt;+ getType(Uri): String&lt;br/&gt;+ insert(Uri, ContentValues): Uri&lt;br/&gt;+ onCreate(): boolean&lt;br/&gt;+ query(Uri, String[], String, String[], String): Cursor&lt;br/&gt;+ update(Uri, ContentValues, String, String[]): int&lt;/p&gt;" style="verticalAlign=top;align=left;overflow=fill;fontSize=14;fontFamily=Helvetica;html=1;rounded=0;shadow=0;comic=0;labelBackgroundColor=none;strokeWidth=1;">
      <mxGeometry x="1227" y="561" width="358" height="712" as="geometry" />
    </mxCell>
    <mxCell id="node10" parent="1" vertex="1" value="&lt;p style=&quot;margin:0px;margin-top:4px;text-align:center;&quot;&gt;&lt;b&gt;LoadingScreenActivity&lt;/b&gt;&lt;/p&gt;&lt;hr size=&quot;1&quot;/&gt;&lt;p style=&quot;margin:0 0 0 4px;line-height:1.6;&quot;&gt;# onCreate(Bundle): void&lt;/p&gt;" style="verticalAlign=top;align=left;overflow=fill;fontSize=14;fontFamily=Helvetica;html=1;rounded=0;shadow=0;comic=0;labelBackgroundColor=none;strokeWidth=1;">
      <mxGeometry x="760" y="6" width="225" height="68" as="geometry" />
    </mxCell>
    <mxCell id="node1" parent="1" vertex="1" value="&lt;p style=&quot;margin:0px;margin-top:4px;text-align:center;&quot;&gt;&lt;b&gt;MainActivity&lt;/b&gt;&lt;/p&gt;&lt;hr size=&quot;1&quot;/&gt;&lt;p style=&quot;margin:0 0 0 4px;line-height:1.6;&quot;&gt;# onCreate(Bundle): void&lt;br/&gt;- setupPopupMenu(ImageView, int, int, Class&amp;lt;?&amp;gt;, int, Class&amp;lt;?&amp;gt;): void&lt;/p&gt;" style="verticalAlign=top;align=left;overflow=fill;fontSize=14;fontFamily=Helvetica;html=1;rounded=0;shadow=0;comic=0;labelBackgroundColor=none;strokeWidth=1;">
      <mxGeometry x="636" y="98" width="472" height="94" as="geometry" />
    </mxCell>
    <mxCell id="node4" parent="1" vertex="1" value="&lt;p style=&quot;margin:0px;margin-top:4px;text-align:center;&quot;&gt;&lt;b&gt;NewCallActivity&lt;/b&gt;&lt;/p&gt;&lt;hr size=&quot;1&quot;/&gt;&lt;p style=&quot;margin:0 0 0 4px;line-height:1.6;&quot;&gt;- checkFieldContact(EditText): boolean&lt;br/&gt;- checkFieldDate(EditText): boolean&lt;br/&gt;- checkFieldName(EditText): boolean&lt;br/&gt;- checkFieldTime(EditText): boolean&lt;br/&gt;- checkFields(EditText, EditText, EditText, EditText): boolean&lt;br/&gt;- createNewCall(String, String, String, String): boolean&lt;br/&gt;- formatDate(int, int, int): String&lt;br/&gt;- formatNumber(int): String&lt;br/&gt;- formatTime(int, int): String&lt;br/&gt;# onCreate(Bundle): void&lt;br/&gt;+ onCreateOptionsMenu(Menu): boolean&lt;br/&gt;+ onOptionsItemSelected(MenuItem): boolean&lt;br/&gt;- resetFields(EditText, EditText, EditText, EditText): void&lt;br/&gt;- showDatePickerDialog(EditText): void&lt;br/&gt;- showTimePickerDialog(EditText): void&lt;/p&gt;" style="verticalAlign=top;align=left;overflow=fill;fontSize=14;fontFamily=Helvetica;html=1;rounded=0;shadow=0;comic=0;labelBackgroundColor=none;strokeWidth=1;">
      <mxGeometry x="668" y="661" width="418" height="399" as="geometry" />
    </mxCell>
    <mxCell id="node9" parent="1" vertex="1" value="&lt;p style=&quot;margin:0px;margin-top:4px;text-align:center;&quot;&gt;&lt;b&gt;NewContactActivity&lt;/b&gt;&lt;/p&gt;&lt;hr size=&quot;1&quot;/&gt;&lt;p style=&quot;margin:0 0 0 4px;line-height:1.6;&quot;&gt;- PERMISSION_REQUEST_READ_EXTERNAL_STORAGE: int&lt;br/&gt;- pickMedia: ActivityResultLauncher&amp;lt;PickVisualMediaRequest&amp;gt;&lt;br/&gt;- selectedImageUri: Uri&lt;/p&gt;&lt;hr size=&quot;1&quot;/&gt;&lt;p style=&quot;margin:0 0 0 4px;line-height:1.6;&quot;&gt;+ allAreNumbers(String): boolean&lt;br/&gt;- checkFieldName(EditText): boolean&lt;br/&gt;- checkFieldPhone(EditText): boolean&lt;br/&gt;- checkFields(EditText, EditText): boolean&lt;br/&gt;- checkRepeatedName(String): boolean&lt;br/&gt;- createNewContact(String, String, Uri): boolean&lt;br/&gt;# onCreate(Bundle): void&lt;br/&gt;+ onCreateOptionsMenu(Menu): boolean&lt;br/&gt;+ onOptionsItemSelected(MenuItem): boolean&lt;br/&gt;- pickImg(): void&lt;br/&gt;- resetFields(EditText, EditText, TextView): void&lt;/p&gt;" style="verticalAlign=top;align=left;overflow=fill;fontSize=14;fontFamily=Helvetica;html=1;rounded=0;shadow=0;comic=0;labelBackgroundColor=none;strokeWidth=1;">
      <mxGeometry x="668" y="246" width="428" height="376" as="geometry" />
    </mxCell>
    <mxCell id="node14" parent="1" vertex="1" value="&lt;p style=&quot;margin:0px;margin-top:4px;text-align:center;&quot;&gt;&lt;b&gt;TimePickerFragment&lt;/b&gt;&lt;/p&gt;&lt;hr size=&quot;1&quot;/&gt;&lt;p style=&quot;margin:0 0 0 4px;line-height:1.6;&quot;&gt;- listener: OnTimeSetListener&lt;/p&gt;&lt;hr size=&quot;1&quot;/&gt;&lt;p style=&quot;margin:0 0 0 4px;line-height:1.6;&quot;&gt;+ newInstance(OnTimeSetListener): TimePickerFragment&lt;br/&gt;+ onCreateDialog(Bundle): Dialog&lt;br/&gt;+ setListener(OnTimeSetListener): void&lt;/p&gt;" style="verticalAlign=top;align=left;overflow=fill;fontSize=14;fontFamily=Helvetica;html=1;rounded=0;shadow=0;comic=0;labelBackgroundColor=none;strokeWidth=1;">
      <mxGeometry x="177" y="411" width="390" height="147" as="geometry" />
    </mxCell>
    <mxCell id="node8" parent="1" vertex="1" value="&lt;p style=&quot;margin:0px;margin-top:4px;text-align:center;&quot;&gt;&lt;b&gt;TopMenu&lt;/b&gt;&lt;/p&gt;&lt;hr size=&quot;1&quot;/&gt;&lt;p style=&quot;margin:0 0 0 4px;line-height:1.6;&quot;&gt;+ disableToolbarTitle(Toolbar): void&lt;br/&gt;+ inflateMenu(MenuInflater, Menu, int): void&lt;br/&gt;+ onOptionsItemSelected(Activity, MenuItem): boolean&lt;/p&gt;" style="verticalAlign=top;align=left;overflow=fill;fontSize=14;fontFamily=Helvetica;html=1;rounded=0;shadow=0;comic=0;labelBackgroundColor=none;strokeWidth=1;">
      <mxGeometry x="191" y="261" width="376" height="120" as="geometry" />
    </mxCell>
  </root>
</mxGraphModel>